# xmcd
#
# Track frame offsets:
#	150
#	16504
#	33763
#	53031
#	68632
#	86818
#	101506
#	116698
#	134128
#	149520
#	167215
#
# Disc length: 2429 seconds
#
# Revision: 2
# Processed by: cddbd v1.5.2PL0 Copyright (c) Steve Scherf et al.
# Submitted via: EasyCDDAExtractor 15.3.0.1
#
DISCID=93097b0b
DTITLE=Betzaida
DYEAR=2004
DGENRE=Latin
TTITLE0=Te Tengo Que Aprender A Olvidar
TTITLE1=El Moreno
TTITLE2=No Te Quiero Olvidar
TTITLE3=Mientes
TTITLE4=Aluciname
TTITLE5=Te Voy A Olvidar
TTITLE6=Ahora Te Dejo Yo
TTITLE7=Culpable De Amarte
TTITLE8=No Tienes Mi Perdon
TTITLE9=Tonto Orgullo
TTITLE10=Te Tengo Que Aprender A Olvidar (Version Cumbia Norteña)
EXTD=
EXTT0=
EXTT1=
EXTT2=
EXTT3=
EXTT4=
EXTT5=
EXTT6=
EXTT7=
EXTT8=
EXTT9=
EXTT10=
PLAYORDER=
